<?xml version="1.0" standalone="no"?>
<!DOCTYPE svg PUBLIC "-//W3C//DTD SVG 20010904//EN"
 "http://www.w3.org/TR/2001/REC-SVG-20010904/DTD/svg10.dtd">
<svg version="1.0" xmlns="http://www.w3.org/2000/svg"
 width="1119.000000pt" height="1119.000000pt" viewBox="0 0 1119.000000 1119.000000"
 preserveAspectRatio="xMidYMid meet">
<metadata>
Created by potrace 1.14, written by Peter Selinger 2001-2017
</metadata>
<g transform="translate(0.000000,1119.000000) scale(0.100000,-0.100000)"
fill="#000000" stroke="none">
<path d="M6495 10983 c-203 -113 -397 -220 -430 -238 -33 -18 -123 -68 -200
-110 -77 -43 -162 -90 -190 -105 -27 -15 -113 -62 -190 -105 -77 -42 -169 -93
-205 -113 -36 -19 -99 -54 -140 -77 -41 -23 -147 -82 -235 -130 -407 -224
-499 -274 -515 -285 -8 -5 -41 -23 -73 -40 -126 -67 -422 -232 -430 -239 -4
-4 -6 -262 -5 -574 l3 -566 235 116 c129 64 237 117 240 118 3 1 151 73 330
162 511 253 1273 629 1410 696 112 54 267 141 280 156 3 3 22 19 44 35 64 48
181 173 235 250 107 155 176 332 207 526 8 52 12 720 4 725 -3 1 -171 -89
-375 -202z"/>
<path d="M5287 7994 c-1 -1 -42 -5 -92 -8 -49 -4 -106 -8 -125 -11 -19 -2 -62
-7 -95 -10 -54 -5 -134 -17 -220 -31 -26 -4 -245 -49 -285 -59 -134 -31 -443
-134 -555 -185 -309 -140 -543 -278 -769 -454 -133 -105 -160 -129 -316 -286
-420 -425 -728 -983 -889 -1610 -62 -240 -95 -428 -116 -650 -3 -36 -8 -78
-10 -95 -21 -161 -22 -769 -1 -880 2 -11 7 -56 10 -100 4 -44 9 -87 11 -95 2
-8 6 -37 10 -65 10 -81 16 -116 32 -195 8 -41 17 -86 19 -100 12 -66 77 -308
114 -420 355 -1073 1157 -1887 2210 -2243 138 -47 348 -105 409 -113 18 -2 36
-6 40 -8 9 -6 240 -44 311 -51 30 -4 69 -8 85 -10 177 -26 760 -25 930 0 17 2
53 6 80 9 84 7 191 25 368 60 15 4 39 8 55 12 197 39 500 144 717 249 354 170
643 381 946 690 339 346 583 738 755 1212 l33 92 -532 -3 c-293 -2 -543 -6
-557 -9 -14 -3 -42 -8 -62 -11 -96 -15 -228 -54 -328 -98 -74 -32 -164 -79
-181 -94 -8 -8 -19 -14 -23 -14 -7 0 -93 -57 -106 -70 -3 -3 -27 -23 -55 -45
-27 -21 -89 -78 -137 -125 -184 -182 -257 -240 -410 -327 -187 -107 -444 -194
-643 -219 -22 -3 -46 -7 -52 -9 -48 -16 -396 -24 -548 -12 -778 57 -1440 520
-1745 1222 -81 184 -169 555 -170 711 l0 31 2833 1 c1557 0 2839 1 2848 1 17
1 20 18 34 151 4 30 8 69 10 85 26 200 26 878 0 1014 -2 13 -7 49 -10 80 -4
31 -8 67 -11 81 -2 14 -6 45 -10 70 -3 25 -7 52 -9 60 -2 8 -7 29 -10 45 -2
17 -7 39 -9 50 -3 11 -11 52 -20 90 -55 255 -156 544 -275 789 -357 730 -913
1265 -1666 1601 -69 31 -297 117 -345 130 -3 0 -30 8 -60 17 -129 38 -292 78
-386 94 -16 2 -51 9 -79 14 -27 5 -68 12 -90 14 -22 3 -58 8 -80 10 -40 5 -90
10 -220 22 -65 6 -553 13 -558 8z m393 -1308 c216 -17 486 -79 675 -156 112
-46 353 -176 410 -222 6 -5 46 -36 90 -70 99 -76 254 -231 318 -318 26 -36 55
-73 63 -83 8 -9 14 -19 14 -21 0 -2 19 -35 42 -72 23 -38 54 -98 70 -134 16
-36 33 -74 38 -85 53 -109 114 -372 126 -540 11 -145 11 -165 5 -166 -3 -1
-932 -2 -2063 -3 l-2058 -1 5 30 c2 17 7 48 10 70 5 34 38 199 50 245 67 267
194 532 362 758 68 91 239 265 339 344 260 206 576 349 884 398 41 7 84 14 95
16 11 2 65 7 120 10 55 4 101 7 102 8 5 4 214 -2 303 -8z"/>
</g>
</svg>
