<svg xmlns="http://www.w3.org/2000/svg" viewBox="0 0 234.96 371.5"><defs><style>.a{fill:#dd4a1f;}</style></defs><polygon class="a" points="134.36 0 91.77 79.24 140.32 79.24 208.56 0 134.36 0"/><path class="a" d="M0,244.62c0-94.81,72.37-127.33,122.75-127.33S235,142.49,235,253.32v11H73.28c3.67,40.3,26.11,55.88,56.8,55.88,28.85,0,55.87-14.2,72.36-29.32l28.4,44c-28.4,24.28-63.66,36.65-106.26,36.65C60.91,371.5,0,339,0,244.62m169-23.81C165.34,186.46,149.77,170,122.29,170c-22.9,0-42.6,15.11-48.09,50.84Z"/></svg>